<svg width="322" height="624" viewBox="0 0 322 624" fill="none" xmlns="http://www.w3.org/2000/svg">
<g filter="url(#filter0_d_1_350)">
<path d="M26 75H296V583C296 590.732 289.732 597 282 597H40C32.268 597 26 590.732 26 583V75Z" fill="white"/>
</g>
<g filter="url(#filter1_d_1_350)">
<path d="M26 33C26 28.5817 29.5817 25 34 25H288C292.418 25 296 28.5817 296 33V75H26V33Z" fill="#1A73E8"/>
</g>
<path d="M45.906 51.736L45.492 53.176H48.498L48.084 51.736C47.892 51.112 47.706 50.47 47.526 49.81C47.358 49.15 47.19 48.496 47.022 47.848H46.95C46.794 48.508 46.626 49.168 46.446 49.828C46.278 50.476 46.098 51.112 45.906 51.736ZM41.964 58L45.798 46.228H48.246L52.08 58H49.884L48.966 54.814H45.006L44.088 58H41.964ZM53.5311 58V46.228H55.6191V56.236H60.5151V58H53.5311ZM62.5663 58V46.228H64.6543V56.236H69.5503V58H62.5663ZM75.2049 58V46.228H78.9129C79.7889 46.228 80.5689 46.342 81.2529 46.57C81.9369 46.798 82.4769 47.176 82.8729 47.704C83.2689 48.232 83.4669 48.952 83.4669 49.864C83.4669 50.728 83.2689 51.442 82.8729 52.006C82.4769 52.57 81.9429 52.99 81.2709 53.266C80.5989 53.542 79.8369 53.68 78.9849 53.68H77.2929V58H75.2049ZM77.2929 52.006H78.8229C80.5509 52.006 81.4149 51.292 81.4149 49.864C81.4149 49.12 81.1869 48.61 80.7309 48.334C80.2869 48.046 79.6269 47.902 78.7509 47.902H77.2929V52.006ZM85.6815 58V46.228H89.6595C90.4755 46.228 91.2075 46.336 91.8555 46.552C92.5155 46.768 93.0315 47.134 93.4035 47.65C93.7875 48.154 93.9795 48.844 93.9795 49.72C93.9795 50.62 93.7635 51.346 93.3315 51.898C92.9115 52.45 92.3475 52.846 91.6395 53.086L94.4475 58H92.1075L89.5695 53.392H87.7695V58H85.6815ZM87.7695 51.736H89.4435C90.2475 51.736 90.8595 51.568 91.2795 51.232C91.7115 50.884 91.9275 50.38 91.9275 49.72C91.9275 49.048 91.7115 48.58 91.2795 48.316C90.8595 48.04 90.2475 47.902 89.4435 47.902H87.7695V51.736ZM100.906 58.216C99.8858 58.216 98.9858 57.97 98.2058 57.478C97.4258 56.974 96.8138 56.266 96.3698 55.354C95.9378 54.43 95.7218 53.332 95.7218 52.06C95.7218 50.788 95.9378 49.702 96.3698 48.802C96.8138 47.902 97.4258 47.212 98.2058 46.732C98.9858 46.252 99.8858 46.012 100.906 46.012C101.938 46.012 102.844 46.252 103.624 46.732C104.404 47.212 105.01 47.902 105.442 48.802C105.886 49.702 106.108 50.788 106.108 52.06C106.108 53.332 105.886 54.43 105.442 55.354C105.01 56.266 104.404 56.974 103.624 57.478C102.844 57.97 101.938 58.216 100.906 58.216ZM100.906 56.398C101.83 56.398 102.568 56.008 103.12 55.228C103.672 54.436 103.948 53.38 103.948 52.06C103.948 50.74 103.672 49.708 103.12 48.964C102.568 48.208 101.83 47.83 100.906 47.83C99.9818 47.83 99.2438 48.208 98.6918 48.964C98.1398 49.708 97.8638 50.74 97.8638 52.06C97.8638 53.38 98.1398 54.436 98.6918 55.228C99.2438 56.008 99.9818 56.398 100.906 56.398ZM113.395 58.216C112.339 58.216 111.391 57.982 110.551 57.514C109.711 57.046 109.051 56.362 108.571 55.462C108.091 54.55 107.851 53.446 107.851 52.15C107.851 50.866 108.097 49.768 108.589 48.856C109.081 47.932 109.747 47.23 110.587 46.75C111.427 46.258 112.369 46.012 113.413 46.012C114.253 46.012 114.961 46.168 115.537 46.48C116.125 46.78 116.605 47.122 116.977 47.506L115.861 48.856C115.561 48.568 115.225 48.328 114.853 48.136C114.493 47.932 114.037 47.83 113.485 47.83C112.441 47.83 111.595 48.214 110.947 48.982C110.311 49.738 109.993 50.776 109.993 52.096C109.993 53.44 110.299 54.496 110.911 55.264C111.523 56.02 112.417 56.398 113.593 56.398C113.929 56.398 114.247 56.356 114.547 56.272C114.847 56.176 115.093 56.044 115.285 55.876V53.338H113.053V51.628H117.157V56.812C116.761 57.208 116.233 57.544 115.573 57.82C114.925 58.084 114.199 58.216 113.395 58.216ZM119.765 58V46.228H123.743C124.559 46.228 125.291 46.336 125.939 46.552C126.599 46.768 127.115 47.134 127.487 47.65C127.871 48.154 128.063 48.844 128.063 49.72C128.063 50.62 127.847 51.346 127.415 51.898C126.995 52.45 126.431 52.846 125.723 53.086L128.531 58H126.191L123.653 53.392H121.853V58H119.765ZM121.853 51.736H123.527C124.331 51.736 124.943 51.568 125.363 51.232C125.795 50.884 126.011 50.38 126.011 49.72C126.011 49.048 125.795 48.58 125.363 48.316C124.943 48.04 124.331 47.902 123.527 47.902H121.853V51.736ZM132.724 51.736L132.31 53.176H135.316L134.902 51.736C134.71 51.112 134.524 50.47 134.344 49.81C134.176 49.15 134.008 48.496 133.84 47.848H133.768C133.612 48.508 133.444 49.168 133.264 49.828C133.096 50.476 132.916 51.112 132.724 51.736ZM128.782 58L132.616 46.228H135.064L138.898 58H136.702L135.784 54.814H131.824L130.906 58H128.782ZM140.349 58V46.228H142.707L144.795 51.988C144.927 52.36 145.053 52.744 145.173 53.14C145.305 53.524 145.431 53.908 145.551 54.292H145.623C145.755 53.908 145.881 53.524 146.001 53.14C146.121 52.744 146.241 52.36 146.361 51.988L148.395 46.228H150.771V58H148.845V52.618C148.845 52.246 148.857 51.844 148.881 51.412C148.917 50.968 148.953 50.524 148.989 50.08C149.037 49.636 149.079 49.234 149.115 48.874H149.043L148.089 51.61L146.163 56.902H144.921L142.977 51.61L142.041 48.874H141.969C142.005 49.234 142.041 49.636 142.077 50.08C142.125 50.524 142.161 50.968 142.185 51.412C142.221 51.844 142.239 52.246 142.239 52.618V58H140.349ZM157.2 58.216C156.408 58.216 155.64 58.066 154.896 57.766C154.164 57.466 153.516 57.04 152.952 56.488L154.176 55.066C154.596 55.462 155.076 55.786 155.616 56.038C156.156 56.278 156.696 56.398 157.236 56.398C157.908 56.398 158.418 56.26 158.766 55.984C159.114 55.708 159.288 55.342 159.288 54.886C159.288 54.394 159.114 54.04 158.766 53.824C158.43 53.608 157.998 53.386 157.47 53.158L155.85 52.456C155.466 52.288 155.088 52.072 154.716 51.808C154.356 51.544 154.056 51.208 153.816 50.8C153.588 50.392 153.474 49.9 153.474 49.324C153.474 48.7 153.642 48.142 153.978 47.65C154.326 47.146 154.794 46.75 155.382 46.462C155.982 46.162 156.666 46.012 157.434 46.012C158.118 46.012 158.778 46.15 159.414 46.426C160.05 46.69 160.596 47.05 161.052 47.506L159.99 48.838C159.618 48.526 159.222 48.28 158.802 48.1C158.394 47.92 157.938 47.83 157.434 47.83C156.882 47.83 156.432 47.956 156.084 48.208C155.748 48.448 155.58 48.784 155.58 49.216C155.58 49.516 155.664 49.768 155.832 49.972C156.012 50.164 156.246 50.332 156.534 50.476C156.822 50.608 157.128 50.74 157.452 50.872L159.054 51.538C159.75 51.838 160.32 52.234 160.764 52.726C161.208 53.206 161.43 53.872 161.43 54.724C161.43 55.36 161.262 55.942 160.926 56.47C160.59 56.998 160.104 57.424 159.468 57.748C158.844 58.06 158.088 58.216 157.2 58.216Z" fill="white"/>
<path fill-rule="evenodd" clip-rule="evenodd" d="M273.646 45.646C273.692 45.5994 273.748 45.5625 273.808 45.5373C273.869 45.5121 273.934 45.4991 274 45.4991C274.066 45.4991 274.131 45.5121 274.192 45.5373C274.252 45.5625 274.308 45.5994 274.354 45.646L280.354 51.646C280.401 51.6924 280.438 51.7476 280.463 51.8084C280.488 51.8691 280.501 51.9342 280.501 52C280.501 52.0658 280.488 52.1309 280.463 52.1916C280.438 52.2524 280.401 52.3075 280.354 52.354L274.354 58.354C274.26 58.4479 274.133 58.5006 274 58.5006C273.867 58.5006 273.74 58.4479 273.646 58.354C273.552 58.2601 273.499 58.1328 273.499 58C273.499 57.8672 273.552 57.7399 273.646 57.646L279.293 52L273.646 46.354C273.599 46.3075 273.563 46.2524 273.537 46.1916C273.512 46.1309 273.499 46.0658 273.499 46C273.499 45.9342 273.512 45.8691 273.537 45.8084C273.563 45.7476 273.599 45.6924 273.646 45.646Z" fill="white" stroke="white" stroke-width="1.5"/>
<path d="M43.494 307V295.228H50.604V296.992H45.582V300.322H49.866V302.086H45.582V307H43.494ZM52.6698 307V295.228H54.7578V307H52.6698ZM57.7499 307V295.228H59.8919L63.5639 301.852L64.7699 304.354H64.8419C64.7939 303.754 64.7339 303.1 64.6619 302.392C64.6019 301.684 64.5719 301 64.5719 300.34V295.228H66.5699V307H64.4279L60.7559 300.376L59.5499 297.874H59.4779C59.5259 298.498 59.5799 299.152 59.6399 299.836C59.7119 300.52 59.7479 301.192 59.7479 301.852V307H57.7499ZM71.9384 307V296.992H68.5364V295.228H77.4284V296.992H74.0264V307H71.9384ZM79.3885 307V295.228H86.4805V296.992H81.4765V299.998H85.7065V301.762H81.4765V305.236H86.6605V307H79.3885ZM93.7721 307.216C92.7881 307.216 91.8941 306.982 91.0901 306.514C90.2861 306.046 89.6441 305.362 89.1641 304.462C88.6961 303.55 88.4621 302.446 88.4621 301.15C88.4621 299.866 88.7021 298.768 89.1821 297.856C89.6741 296.932 90.3281 296.23 91.1441 295.75C91.9601 295.258 92.8601 295.012 93.8441 295.012C94.5881 295.012 95.2481 295.162 95.8241 295.462C96.4001 295.762 96.8741 296.11 97.2461 296.506L96.1301 297.856C95.8301 297.544 95.4941 297.298 95.1221 297.118C94.7621 296.926 94.3541 296.83 93.8981 296.83C93.2621 296.83 92.6921 297.004 92.1881 297.352C91.6961 297.688 91.3061 298.174 91.0181 298.81C90.7421 299.446 90.6041 300.208 90.6041 301.096C90.6041 302.44 90.8981 303.496 91.4861 304.264C92.0741 305.02 92.8601 305.398 93.8441 305.398C94.3721 305.398 94.8401 305.29 95.2481 305.074C95.6561 304.846 96.0281 304.552 96.3641 304.192L97.4801 305.506C97.0001 306.058 96.4481 306.484 95.8241 306.784C95.2121 307.072 94.5281 307.216 93.7721 307.216ZM99.4452 307V295.228H101.533V299.962H106.303V295.228H108.391V307H106.303V301.78H101.533V307H99.4452Z" fill="#3C4852"/>
<path fill-rule="evenodd" clip-rule="evenodd" d="M271.647 296.532C271.679 296.5 271.718 296.474 271.761 296.456C271.803 296.438 271.849 296.429 271.895 296.429C271.942 296.429 271.988 296.438 272.03 296.456C272.073 296.474 272.112 296.5 272.144 296.532L276.363 300.751C276.396 300.784 276.422 300.823 276.44 300.865C276.457 300.908 276.466 300.954 276.466 301C276.466 301.046 276.457 301.092 276.44 301.135C276.422 301.177 276.396 301.216 276.363 301.249L272.144 305.468C272.078 305.534 271.989 305.571 271.895 305.571C271.802 305.571 271.713 305.534 271.647 305.468C271.581 305.402 271.543 305.312 271.543 305.219C271.543 305.125 271.581 305.036 271.647 304.97L275.617 301L271.647 297.03C271.614 296.997 271.588 296.959 271.57 296.916C271.552 296.873 271.543 296.827 271.543 296.781C271.543 296.735 271.552 296.689 271.57 296.647C271.588 296.604 271.614 296.565 271.647 296.532Z" fill="#3C4852" stroke="#3C4852" stroke-width="1.05469"/>
<path d="M43.494 506V494.228H46.644C48.444 494.228 49.848 494.714 50.856 495.686C51.864 496.658 52.368 498.116 52.368 500.06C52.368 502.016 51.87 503.498 50.874 504.506C49.878 505.502 48.504 506 46.752 506H43.494ZM45.582 504.308H46.5C47.688 504.308 48.606 503.966 49.254 503.282C49.902 502.586 50.226 501.512 50.226 500.06C50.226 498.62 49.902 497.57 49.254 496.91C48.606 496.25 47.688 495.92 46.5 495.92H45.582V504.308ZM54.744 506V494.228H56.832V506H54.744ZM64.7561 506.216C63.7001 506.216 62.7521 505.982 61.9121 505.514C61.0721 505.046 60.4121 504.362 59.9321 503.462C59.4521 502.55 59.2121 501.446 59.2121 500.15C59.2121 498.866 59.4581 497.768 59.9501 496.856C60.4421 495.932 61.1081 495.23 61.9481 494.75C62.7881 494.258 63.7301 494.012 64.7741 494.012C65.6141 494.012 66.3221 494.168 66.8981 494.48C67.4861 494.78 67.9661 495.122 68.3381 495.506L67.2221 496.856C66.9221 496.568 66.5861 496.328 66.2141 496.136C65.8541 495.932 65.3981 495.83 64.8461 495.83C63.8021 495.83 62.9561 496.214 62.3081 496.982C61.6721 497.738 61.3541 498.776 61.3541 500.096C61.3541 501.44 61.6601 502.496 62.2721 503.264C62.8841 504.02 63.7781 504.398 64.9541 504.398C65.2901 504.398 65.6081 504.356 65.9081 504.272C66.2081 504.176 66.4541 504.044 66.6461 503.876V501.338H64.4141V499.628H68.5181V504.812C68.1221 505.208 67.5941 505.544 66.9341 505.82C66.2861 506.084 65.5601 506.216 64.7561 506.216ZM71.1268 506V494.228H73.2148V506H71.1268ZM78.5829 506V495.992H75.1809V494.228H84.0729V495.992H80.6709V506H78.5829ZM87.7244 499.736L87.3104 501.176H90.3164L89.9024 499.736C89.7104 499.112 89.5244 498.47 89.3444 497.81C89.1764 497.15 89.0084 496.496 88.8404 495.848H88.7684C88.6124 496.508 88.4444 497.168 88.2644 497.828C88.0964 498.476 87.9164 499.112 87.7244 499.736ZM83.7824 506L87.6164 494.228H90.0644L93.8984 506H91.7024L90.7844 502.814H86.8244L85.9064 506H83.7824ZM95.3495 506V494.228H97.4375V504.236H102.333V506H95.3495ZM110.364 506V495.992H106.962V494.228H115.854V495.992H112.452V506H110.364ZM117.814 506V494.228H121.792C122.608 494.228 123.34 494.336 123.988 494.552C124.648 494.768 125.164 495.134 125.536 495.65C125.92 496.154 126.112 496.844 126.112 497.72C126.112 498.62 125.896 499.346 125.464 499.898C125.044 500.45 124.48 500.846 123.772 501.086L126.58 506H124.24L121.702 501.392H119.902V506H117.814ZM119.902 499.736H121.576C122.38 499.736 122.992 499.568 123.412 499.232C123.844 498.884 124.06 498.38 124.06 497.72C124.06 497.048 123.844 496.58 123.412 496.316C122.992 496.04 122.38 495.902 121.576 495.902H119.902V499.736ZM130.773 499.736L130.359 501.176H133.365L132.951 499.736C132.759 499.112 132.573 498.47 132.393 497.81C132.225 497.15 132.057 496.496 131.889 495.848H131.817C131.661 496.508 131.493 497.168 131.313 497.828C131.145 498.476 130.965 499.112 130.773 499.736ZM126.831 506L130.665 494.228H133.113L136.947 506H134.751L133.833 502.814H129.873L128.955 506H126.831ZM138.398 506V494.228H140.54L144.212 500.852L145.418 503.354H145.49C145.442 502.754 145.382 502.1 145.31 501.392C145.25 500.684 145.22 500 145.22 499.34V494.228H147.218V506H145.076L141.404 499.376L140.198 496.874H140.126C140.174 497.498 140.228 498.152 140.288 498.836C140.36 499.52 140.396 500.192 140.396 500.852V506H138.398ZM153.649 506.216C152.857 506.216 152.089 506.066 151.345 505.766C150.613 505.466 149.965 505.04 149.401 504.488L150.625 503.066C151.045 503.462 151.525 503.786 152.065 504.038C152.605 504.278 153.145 504.398 153.685 504.398C154.357 504.398 154.867 504.26 155.215 503.984C155.563 503.708 155.737 503.342 155.737 502.886C155.737 502.394 155.563 502.04 155.215 501.824C154.879 501.608 154.447 501.386 153.919 501.158L152.299 500.456C151.915 500.288 151.537 500.072 151.165 499.808C150.805 499.544 150.505 499.208 150.265 498.8C150.037 498.392 149.923 497.9 149.923 497.324C149.923 496.7 150.091 496.142 150.427 495.65C150.775 495.146 151.243 494.75 151.831 494.462C152.431 494.162 153.115 494.012 153.883 494.012C154.567 494.012 155.227 494.15 155.863 494.426C156.499 494.69 157.045 495.05 157.501 495.506L156.439 496.838C156.067 496.526 155.671 496.28 155.251 496.1C154.843 495.92 154.387 495.83 153.883 495.83C153.331 495.83 152.881 495.956 152.533 496.208C152.197 496.448 152.029 496.784 152.029 497.216C152.029 497.516 152.113 497.768 152.281 497.972C152.461 498.164 152.695 498.332 152.983 498.476C153.271 498.608 153.577 498.74 153.901 498.872L155.503 499.538C156.199 499.838 156.769 500.234 157.213 500.726C157.657 501.206 157.879 501.872 157.879 502.724C157.879 503.36 157.711 503.942 157.375 504.47C157.039 504.998 156.553 505.424 155.917 505.748C155.293 506.06 154.537 506.216 153.649 506.216ZM160.019 506V494.228H167.129V495.992H162.107V499.322H166.391V501.086H162.107V506H160.019ZM173.591 506.216C172.571 506.216 171.671 505.97 170.891 505.478C170.111 504.974 169.499 504.266 169.055 503.354C168.623 502.43 168.407 501.332 168.407 500.06C168.407 498.788 168.623 497.702 169.055 496.802C169.499 495.902 170.111 495.212 170.891 494.732C171.671 494.252 172.571 494.012 173.591 494.012C174.623 494.012 175.529 494.252 176.309 494.732C177.089 495.212 177.695 495.902 178.127 496.802C178.571 497.702 178.793 498.788 178.793 500.06C178.793 501.332 178.571 502.43 178.127 503.354C177.695 504.266 177.089 504.974 176.309 505.478C175.529 505.97 174.623 506.216 173.591 506.216ZM173.591 504.398C174.515 504.398 175.253 504.008 175.805 503.228C176.357 502.436 176.633 501.38 176.633 500.06C176.633 498.74 176.357 497.708 175.805 496.964C175.253 496.208 174.515 495.83 173.591 495.83C172.667 495.83 171.929 496.208 171.377 496.964C170.825 497.708 170.549 498.74 170.549 500.06C170.549 501.38 170.825 502.436 171.377 503.228C171.929 504.008 172.667 504.398 173.591 504.398ZM181.148 506V494.228H185.126C185.942 494.228 186.674 494.336 187.322 494.552C187.982 494.768 188.498 495.134 188.87 495.65C189.254 496.154 189.446 496.844 189.446 497.72C189.446 498.62 189.23 499.346 188.798 499.898C188.378 500.45 187.814 500.846 187.106 501.086L189.914 506H187.574L185.036 501.392H183.236V506H181.148ZM183.236 499.736H184.91C185.714 499.736 186.326 499.568 186.746 499.232C187.178 498.884 187.394 498.38 187.394 497.72C187.394 497.048 187.178 496.58 186.746 496.316C186.326 496.04 185.714 495.902 184.91 495.902H183.236V499.736ZM191.801 506V494.228H194.159L196.247 499.988C196.379 500.36 196.505 500.744 196.625 501.14C196.757 501.524 196.883 501.908 197.003 502.292H197.075C197.207 501.908 197.333 501.524 197.453 501.14C197.573 500.744 197.693 500.36 197.813 499.988L199.847 494.228H202.223V506H200.297V500.618C200.297 500.246 200.309 499.844 200.333 499.412C200.369 498.968 200.405 498.524 200.441 498.08C200.489 497.636 200.531 497.234 200.567 496.874H200.495L199.541 499.61L197.615 504.902H196.373L194.429 499.61L193.493 496.874H193.421C193.457 497.234 193.493 497.636 193.529 498.08C193.577 498.524 193.613 498.968 193.637 499.412C193.673 499.844 193.691 500.246 193.691 500.618V506H191.801ZM207.625 499.736L207.211 501.176H210.217L209.803 499.736C209.611 499.112 209.425 498.47 209.245 497.81C209.077 497.15 208.909 496.496 208.741 495.848H208.669C208.513 496.508 208.345 497.168 208.165 497.828C207.997 498.476 207.817 499.112 207.625 499.736ZM203.683 506L207.517 494.228H209.965L213.799 506H211.603L210.685 502.814H206.725L205.807 506H203.683ZM216.466 506V495.992H213.064V494.228H221.956V495.992H218.554V506H216.466ZM223.916 506V494.228H226.004V506H223.916ZM233.568 506.216C232.548 506.216 231.648 505.97 230.868 505.478C230.088 504.974 229.476 504.266 229.032 503.354C228.6 502.43 228.384 501.332 228.384 500.06C228.384 498.788 228.6 497.702 229.032 496.802C229.476 495.902 230.088 495.212 230.868 494.732C231.648 494.252 232.548 494.012 233.568 494.012C234.6 494.012 235.506 494.252 236.286 494.732C237.066 495.212 237.672 495.902 238.104 496.802C238.548 497.702 238.77 498.788 238.77 500.06C238.77 501.332 238.548 502.43 238.104 503.354C237.672 504.266 237.066 504.974 236.286 505.478C235.506 505.97 234.6 506.216 233.568 506.216ZM233.568 504.398C234.492 504.398 235.23 504.008 235.782 503.228C236.334 502.436 236.61 501.38 236.61 500.06C236.61 498.74 236.334 497.708 235.782 496.964C235.23 496.208 234.492 495.83 233.568 495.83C232.644 495.83 231.906 496.208 231.354 496.964C230.802 497.708 230.526 498.74 230.526 500.06C230.526 501.38 230.802 502.436 231.354 503.228C231.906 504.008 232.644 504.398 233.568 504.398ZM241.125 506V494.228H243.267L246.939 500.852L248.145 503.354H248.217C248.169 502.754 248.109 502.1 248.037 501.392C247.977 500.684 247.947 500 247.947 499.34V494.228H249.945V506H247.803L244.131 499.376L242.925 496.874H242.853C242.901 497.498 242.955 498.152 243.015 498.836C243.087 499.52 243.123 500.192 243.123 500.852V506H241.125Z" fill="#3C4852"/>
<path fill-rule="evenodd" clip-rule="evenodd" d="M271.647 495.103C271.679 495.071 271.718 495.045 271.761 495.027C271.804 495.009 271.849 495 271.896 495C271.942 495 271.988 495.009 272.03 495.027C272.073 495.045 272.112 495.071 272.145 495.103L276.363 499.322C276.396 499.355 276.422 499.393 276.44 499.436C276.457 499.479 276.467 499.525 276.467 499.571C276.467 499.617 276.457 499.663 276.44 499.706C276.422 499.748 276.396 499.787 276.363 499.82L272.145 504.039C272.079 504.105 271.989 504.142 271.896 504.142C271.802 504.142 271.713 504.105 271.647 504.039C271.581 503.973 271.544 503.883 271.544 503.79C271.544 503.696 271.581 503.607 271.647 503.541L275.617 499.571L271.647 495.601C271.614 495.568 271.588 495.53 271.57 495.487C271.553 495.444 271.543 495.398 271.543 495.352C271.543 495.306 271.553 495.26 271.57 495.217C271.588 495.175 271.614 495.136 271.647 495.103Z" fill="#3C4852" stroke="#3C4852" stroke-width="1.05469"/>
<path d="M47.932 369.216C47.14 369.216 46.372 369.066 45.628 368.766C44.896 368.466 44.248 368.04 43.684 367.488L44.908 366.066C45.328 366.462 45.808 366.786 46.348 367.038C46.888 367.278 47.428 367.398 47.968 367.398C48.64 367.398 49.15 367.26 49.498 366.984C49.846 366.708 50.02 366.342 50.02 365.886C50.02 365.394 49.846 365.04 49.498 364.824C49.162 364.608 48.73 364.386 48.202 364.158L46.582 363.456C46.198 363.288 45.82 363.072 45.448 362.808C45.088 362.544 44.788 362.208 44.548 361.8C44.32 361.392 44.206 360.9 44.206 360.324C44.206 359.7 44.374 359.142 44.71 358.65C45.058 358.146 45.526 357.75 46.114 357.462C46.714 357.162 47.398 357.012 48.166 357.012C48.85 357.012 49.51 357.15 50.146 357.426C50.782 357.69 51.328 358.05 51.784 358.506L50.722 359.838C50.35 359.526 49.954 359.28 49.534 359.1C49.126 358.92 48.67 358.83 48.166 358.83C47.614 358.83 47.164 358.956 46.816 359.208C46.48 359.448 46.312 359.784 46.312 360.216C46.312 360.516 46.396 360.768 46.564 360.972C46.744 361.164 46.978 361.332 47.266 361.476C47.554 361.608 47.86 361.74 48.184 361.872L49.786 362.538C50.482 362.838 51.052 363.234 51.496 363.726C51.94 364.206 52.162 364.872 52.162 365.724C52.162 366.36 51.994 366.942 51.658 367.47C51.322 367.998 50.836 368.424 50.2 368.748C49.576 369.06 48.82 369.216 47.932 369.216ZM54.3026 369V357.228H61.3946V358.992H56.3906V361.998H60.6206V363.762H56.3906V367.236H61.5746V369H54.3026ZM63.9881 369V357.228H66.1301L69.8021 363.852L71.0081 366.354H71.0801C71.0321 365.754 70.9721 365.1 70.9001 364.392C70.8401 363.684 70.8101 363 70.8101 362.34V357.228H72.8081V369H70.6661L66.9941 362.376L65.7881 359.874H65.7161C65.7641 360.498 65.8181 361.152 65.8781 361.836C65.9501 362.52 65.9861 363.192 65.9861 363.852V369H63.9881ZM75.8006 369V357.228H77.8886V369H75.8006ZM85.4527 369.216C84.4327 369.216 83.5327 368.97 82.7527 368.478C81.9727 367.974 81.3607 367.266 80.9167 366.354C80.4847 365.43 80.2687 364.332 80.2687 363.06C80.2687 361.788 80.4847 360.702 80.9167 359.802C81.3607 358.902 81.9727 358.212 82.7527 357.732C83.5327 357.252 84.4327 357.012 85.4527 357.012C86.4847 357.012 87.3907 357.252 88.1707 357.732C88.9507 358.212 89.5567 358.902 89.9887 359.802C90.4327 360.702 90.6547 361.788 90.6547 363.06C90.6547 364.332 90.4327 365.43 89.9887 366.354C89.5567 367.266 88.9507 367.974 88.1707 368.478C87.3907 368.97 86.4847 369.216 85.4527 369.216ZM85.4527 367.398C86.3767 367.398 87.1147 367.008 87.6667 366.228C88.2187 365.436 88.4947 364.38 88.4947 363.06C88.4947 361.74 88.2187 360.708 87.6667 359.964C87.1147 359.208 86.3767 358.83 85.4527 358.83C84.5287 358.83 83.7907 359.208 83.2387 359.964C82.6867 360.708 82.4107 361.74 82.4107 363.06C82.4107 364.38 82.6867 365.436 83.2387 366.228C83.7907 367.008 84.5287 367.398 85.4527 367.398ZM93.0096 369V357.228H96.9876C97.8036 357.228 98.5356 357.336 99.1836 357.552C99.8436 357.768 100.36 358.134 100.732 358.65C101.116 359.154 101.308 359.844 101.308 360.72C101.308 361.62 101.092 362.346 100.66 362.898C100.24 363.45 99.6756 363.846 98.9676 364.086L101.776 369H99.4356L96.8976 364.392H95.0976V369H93.0096ZM95.0976 362.736H96.7716C97.5756 362.736 98.1876 362.568 98.6076 362.232C99.0396 361.884 99.2556 361.38 99.2556 360.72C99.2556 360.048 99.0396 359.58 98.6076 359.316C98.1876 359.04 97.5756 358.902 96.7716 358.902H95.0976V362.736ZM107.265 369V357.228H109.623L111.711 362.988C111.843 363.36 111.969 363.744 112.089 364.14C112.221 364.524 112.347 364.908 112.467 365.292H112.539C112.671 364.908 112.797 364.524 112.917 364.14C113.037 363.744 113.157 363.36 113.277 362.988L115.311 357.228H117.687V369H115.761V363.618C115.761 363.246 115.773 362.844 115.797 362.412C115.833 361.968 115.869 361.524 115.905 361.08C115.953 360.636 115.995 360.234 116.031 359.874H115.959L115.005 362.61L113.079 367.902H111.837L109.893 362.61L108.957 359.874H108.885C108.921 360.234 108.957 360.636 108.993 361.08C109.041 361.524 109.077 361.968 109.101 362.412C109.137 362.844 109.155 363.246 109.155 363.618V369H107.265ZM123.09 362.736L122.676 364.176H125.682L125.268 362.736C125.076 362.112 124.89 361.47 124.71 360.81C124.542 360.15 124.374 359.496 124.206 358.848H124.134C123.978 359.508 123.81 360.168 123.63 360.828C123.462 361.476 123.282 362.112 123.09 362.736ZM119.148 369L122.982 357.228H125.43L129.264 369H127.068L126.15 365.814H122.19L121.272 369H119.148ZM130.715 369V357.228H132.857L136.529 363.852L137.735 366.354H137.807C137.759 365.754 137.699 365.1 137.627 364.392C137.567 363.684 137.537 363 137.537 362.34V357.228H139.535V369H137.393L133.721 362.376L132.515 359.874H132.443C132.491 360.498 132.545 361.152 132.605 361.836C132.677 362.52 132.713 363.192 132.713 363.852V369H130.715ZM144.939 362.736L144.525 364.176H147.531L147.117 362.736C146.925 362.112 146.739 361.47 146.559 360.81C146.391 360.15 146.223 359.496 146.055 358.848H145.983C145.827 359.508 145.659 360.168 145.479 360.828C145.311 361.476 145.131 362.112 144.939 362.736ZM140.997 369L144.831 357.228H147.279L151.113 369H148.917L147.999 365.814H144.039L143.121 369H140.997ZM157.321 369.216C156.265 369.216 155.317 368.982 154.477 368.514C153.637 368.046 152.977 367.362 152.497 366.462C152.017 365.55 151.777 364.446 151.777 363.15C151.777 361.866 152.023 360.768 152.515 359.856C153.007 358.932 153.673 358.23 154.513 357.75C155.353 357.258 156.295 357.012 157.339 357.012C158.179 357.012 158.887 357.168 159.463 357.48C160.051 357.78 160.531 358.122 160.903 358.506L159.787 359.856C159.487 359.568 159.151 359.328 158.779 359.136C158.419 358.932 157.963 358.83 157.411 358.83C156.367 358.83 155.521 359.214 154.873 359.982C154.237 360.738 153.919 361.776 153.919 363.096C153.919 364.44 154.225 365.496 154.837 366.264C155.449 367.02 156.343 367.398 157.519 367.398C157.855 367.398 158.173 367.356 158.473 367.272C158.773 367.176 159.019 367.044 159.211 366.876V364.338H156.979V362.628H161.083V367.812C160.687 368.208 160.159 368.544 159.499 368.82C158.851 369.084 158.125 369.216 157.321 369.216ZM163.691 369V357.228H170.783V358.992H165.779V361.998H170.009V363.762H165.779V367.236H170.963V369H163.691ZM173.377 369V357.228H175.735L177.823 362.988C177.955 363.36 178.081 363.744 178.201 364.14C178.333 364.524 178.459 364.908 178.579 365.292H178.651C178.783 364.908 178.909 364.524 179.029 364.14C179.149 363.744 179.269 363.36 179.389 362.988L181.423 357.228H183.799V369H181.873V363.618C181.873 363.246 181.885 362.844 181.909 362.412C181.945 361.968 181.981 361.524 182.017 361.08C182.065 360.636 182.107 360.234 182.143 359.874H182.071L181.117 362.61L179.191 367.902H177.949L176.005 362.61L175.069 359.874H174.997C175.033 360.234 175.069 360.636 175.105 361.08C175.153 361.524 175.189 361.968 175.213 362.412C175.249 362.844 175.267 363.246 175.267 363.618V369H173.377ZM186.789 369V357.228H193.881V358.992H188.877V361.998H193.107V363.762H188.877V367.236H194.061V369H186.789ZM196.474 369V357.228H198.616L202.288 363.852L203.494 366.354H203.566C203.518 365.754 203.458 365.1 203.386 364.392C203.326 363.684 203.296 363 203.296 362.34V357.228H205.294V369H203.152L199.48 362.376L198.274 359.874H198.202C198.25 360.498 198.304 361.152 198.364 361.836C198.436 362.52 198.472 363.192 198.472 363.852V369H196.474ZM210.663 369V358.992H207.261V357.228H216.153V358.992H212.751V369H210.663Z" fill="#3C4852"/>
<path fill-rule="evenodd" clip-rule="evenodd" d="M271.647 358.532C271.679 358.5 271.718 358.474 271.761 358.456C271.803 358.438 271.849 358.429 271.895 358.429C271.942 358.429 271.988 358.438 272.03 358.456C272.073 358.474 272.112 358.5 272.144 358.532L276.363 362.751C276.396 362.784 276.422 362.823 276.44 362.865C276.457 362.908 276.466 362.954 276.466 363C276.466 363.046 276.457 363.092 276.44 363.135C276.422 363.177 276.396 363.216 276.363 363.249L272.144 367.468C272.078 367.534 271.989 367.571 271.895 367.571C271.802 367.571 271.713 367.534 271.647 367.468C271.581 367.402 271.543 367.312 271.543 367.219C271.543 367.125 271.581 367.036 271.647 366.97L275.617 363L271.647 359.03C271.614 358.998 271.588 358.959 271.57 358.916C271.552 358.873 271.543 358.827 271.543 358.781C271.543 358.735 271.552 358.689 271.57 358.647C271.588 358.604 271.614 358.565 271.647 358.532Z" fill="#3C4852" stroke="#3C4852" stroke-width="1.05469"/>
<path d="M43.494 568V556.228H47.256C48.072 556.228 48.792 556.318 49.416 556.498C50.052 556.678 50.55 556.984 50.91 557.416C51.282 557.836 51.468 558.406 51.468 559.126C51.468 559.678 51.324 560.2 51.036 560.692C50.748 561.172 50.346 561.502 49.83 561.682V561.754C50.478 561.898 51.012 562.204 51.432 562.672C51.864 563.128 52.08 563.752 52.08 564.544C52.08 565.324 51.882 565.972 51.486 566.488C51.102 567.004 50.568 567.388 49.884 567.64C49.2 567.88 48.426 568 47.562 568H43.494ZM45.582 561.088H47.076C47.892 561.088 48.486 560.938 48.858 560.638C49.23 560.338 49.416 559.936 49.416 559.432C49.416 558.856 49.224 558.448 48.84 558.208C48.456 557.968 47.88 557.848 47.112 557.848H45.582V561.088ZM45.582 566.38H47.346C48.21 566.38 48.876 566.224 49.344 565.912C49.812 565.588 50.046 565.096 50.046 564.436C50.046 563.812 49.818 563.362 49.362 563.086C48.906 562.798 48.234 562.654 47.346 562.654H45.582V566.38ZM58.6442 568.216C57.7442 568.216 56.9582 568.036 56.2862 567.676C55.6142 567.316 55.0922 566.74 54.7202 565.948C54.3602 565.156 54.1802 564.118 54.1802 562.834V556.228H56.2682V562.996C56.2682 563.848 56.3642 564.526 56.5562 565.03C56.7602 565.522 57.0422 565.876 57.4022 566.092C57.7622 566.296 58.1762 566.398 58.6442 566.398C59.1242 566.398 59.5442 566.296 59.9042 566.092C60.2762 565.876 60.5642 565.522 60.7682 565.03C60.9842 564.526 61.0922 563.848 61.0922 562.996V556.228H63.0902V562.834C63.0902 564.118 62.9102 565.156 62.5502 565.948C62.1902 566.74 61.6742 567.316 61.0022 567.676C60.3422 568.036 59.5562 568.216 58.6442 568.216ZM69.2914 568.216C68.4994 568.216 67.7314 568.066 66.9874 567.766C66.2554 567.466 65.6074 567.04 65.0434 566.488L66.2674 565.066C66.6874 565.462 67.1674 565.786 67.7074 566.038C68.2474 566.278 68.7874 566.398 69.3274 566.398C69.9994 566.398 70.5094 566.26 70.8574 565.984C71.2054 565.708 71.3794 565.342 71.3794 564.886C71.3794 564.394 71.2054 564.04 70.8574 563.824C70.5214 563.608 70.0894 563.386 69.5614 563.158L67.9414 562.456C67.5574 562.288 67.1794 562.072 66.8074 561.808C66.4474 561.544 66.1474 561.208 65.9074 560.8C65.6794 560.392 65.5654 559.9 65.5654 559.324C65.5654 558.7 65.7334 558.142 66.0694 557.65C66.4174 557.146 66.8854 556.75 67.4734 556.462C68.0734 556.162 68.7574 556.012 69.5254 556.012C70.2094 556.012 70.8694 556.15 71.5054 556.426C72.1414 556.69 72.6874 557.05 73.1434 557.506L72.0814 558.838C71.7094 558.526 71.3134 558.28 70.8934 558.1C70.4854 557.92 70.0294 557.83 69.5254 557.83C68.9734 557.83 68.5234 557.956 68.1754 558.208C67.8394 558.448 67.6714 558.784 67.6714 559.216C67.6714 559.516 67.7554 559.768 67.9234 559.972C68.1034 560.164 68.3374 560.332 68.6254 560.476C68.9134 560.608 69.2194 560.74 69.5434 560.872L71.1454 561.538C71.8414 561.838 72.4114 562.234 72.8554 562.726C73.2994 563.206 73.5214 563.872 73.5214 564.724C73.5214 565.36 73.3534 565.942 73.0174 566.47C72.6814 566.998 72.1954 567.424 71.5594 567.748C70.9354 568.06 70.1794 568.216 69.2914 568.216ZM75.662 568V556.228H77.75V568H75.662ZM80.742 568V556.228H82.884L86.556 562.852L87.762 565.354H87.834C87.786 564.754 87.726 564.1 87.654 563.392C87.594 562.684 87.564 562 87.564 561.34V556.228H89.562V568H87.42L83.748 561.376L82.542 558.874H82.47C82.518 559.498 82.572 560.152 82.632 560.836C82.704 561.52 82.74 562.192 82.74 562.852V568H80.742ZM92.5545 568V556.228H99.6465V557.992H94.6425V560.998H98.8725V562.762H94.6425V566.236H99.8265V568H92.5545ZM105.678 568.216C104.886 568.216 104.118 568.066 103.374 567.766C102.642 567.466 101.994 567.04 101.43 566.488L102.654 565.066C103.074 565.462 103.554 565.786 104.094 566.038C104.634 566.278 105.174 566.398 105.714 566.398C106.386 566.398 106.896 566.26 107.244 565.984C107.592 565.708 107.766 565.342 107.766 564.886C107.766 564.394 107.592 564.04 107.244 563.824C106.908 563.608 106.476 563.386 105.948 563.158L104.328 562.456C103.944 562.288 103.566 562.072 103.194 561.808C102.834 561.544 102.534 561.208 102.294 560.8C102.066 560.392 101.952 559.9 101.952 559.324C101.952 558.7 102.12 558.142 102.456 557.65C102.804 557.146 103.272 556.75 103.86 556.462C104.46 556.162 105.144 556.012 105.912 556.012C106.596 556.012 107.256 556.15 107.892 556.426C108.528 556.69 109.074 557.05 109.53 557.506L108.468 558.838C108.096 558.526 107.7 558.28 107.28 558.1C106.872 557.92 106.416 557.83 105.912 557.83C105.36 557.83 104.91 557.956 104.562 558.208C104.226 558.448 104.058 558.784 104.058 559.216C104.058 559.516 104.142 559.768 104.31 559.972C104.49 560.164 104.724 560.332 105.012 560.476C105.3 560.608 105.606 560.74 105.93 560.872L107.532 561.538C108.228 561.838 108.798 562.234 109.242 562.726C109.686 563.206 109.908 563.872 109.908 564.724C109.908 565.36 109.74 565.942 109.404 566.47C109.068 566.998 108.582 567.424 107.946 567.748C107.322 568.06 106.566 568.216 105.678 568.216ZM115.205 568.216C114.413 568.216 113.645 568.066 112.901 567.766C112.169 567.466 111.521 567.04 110.957 566.488L112.181 565.066C112.601 565.462 113.081 565.786 113.621 566.038C114.161 566.278 114.701 566.398 115.241 566.398C115.913 566.398 116.423 566.26 116.771 565.984C117.119 565.708 117.293 565.342 117.293 564.886C117.293 564.394 117.119 564.04 116.771 563.824C116.435 563.608 116.003 563.386 115.475 563.158L113.855 562.456C113.471 562.288 113.093 562.072 112.721 561.808C112.361 561.544 112.061 561.208 111.821 560.8C111.593 560.392 111.479 559.9 111.479 559.324C111.479 558.7 111.647 558.142 111.983 557.65C112.331 557.146 112.799 556.75 113.387 556.462C113.987 556.162 114.671 556.012 115.439 556.012C116.123 556.012 116.783 556.15 117.419 556.426C118.055 556.69 118.601 557.05 119.057 557.506L117.995 558.838C117.623 558.526 117.227 558.28 116.807 558.1C116.399 557.92 115.943 557.83 115.439 557.83C114.887 557.83 114.437 557.956 114.089 558.208C113.753 558.448 113.585 558.784 113.585 559.216C113.585 559.516 113.669 559.768 113.837 559.972C114.017 560.164 114.251 560.332 114.539 560.476C114.827 560.608 115.133 560.74 115.457 560.872L117.059 561.538C117.755 561.838 118.325 562.234 118.769 562.726C119.213 563.206 119.435 563.872 119.435 564.724C119.435 565.36 119.267 565.942 118.931 566.47C118.595 566.998 118.109 567.424 117.473 567.748C116.849 568.06 116.093 568.216 115.205 568.216ZM127.592 561.736L127.178 563.176H130.184L129.77 561.736C129.578 561.112 129.392 560.47 129.212 559.81C129.044 559.15 128.876 558.496 128.708 557.848H128.636C128.48 558.508 128.312 559.168 128.132 559.828C127.964 560.476 127.784 561.112 127.592 561.736ZM123.65 568L127.484 556.228H129.932L133.766 568H131.57L130.652 564.814H126.692L125.774 568H123.65ZM135.217 568V556.228H137.359L141.031 562.852L142.237 565.354H142.309C142.261 564.754 142.201 564.1 142.129 563.392C142.069 562.684 142.039 562 142.039 561.34V556.228H144.037V568H141.895L138.223 561.376L137.017 558.874H136.945C136.993 559.498 137.047 560.152 137.107 560.836C137.179 561.52 137.215 562.192 137.215 562.852V568H135.217ZM149.441 561.736L149.027 563.176H152.033L151.619 561.736C151.427 561.112 151.241 560.47 151.061 559.81C150.893 559.15 150.725 558.496 150.557 557.848H150.485C150.329 558.508 150.161 559.168 149.981 559.828C149.813 560.476 149.633 561.112 149.441 561.736ZM145.499 568L149.333 556.228H151.781L155.615 568H153.419L152.501 564.814H148.541L147.623 568H145.499ZM157.066 568V556.228H159.154V566.236H164.05V568H157.066ZM166.604 568V563.626L163.076 556.228H165.308L166.586 559.234C166.754 559.678 166.922 560.11 167.09 560.53C167.258 560.938 167.438 561.37 167.63 561.826H167.702C167.894 561.37 168.08 560.938 168.26 560.53C168.44 560.11 168.614 559.678 168.782 559.234L170.06 556.228H172.238L168.692 563.626V568H166.604ZM175.755 568V557.992H172.353V556.228H181.245V557.992H177.843V568H175.755ZM183.205 568V556.228H185.293V568H183.205ZM192.983 568.216C191.999 568.216 191.105 567.982 190.301 567.514C189.497 567.046 188.855 566.362 188.375 565.462C187.907 564.55 187.673 563.446 187.673 562.15C187.673 560.866 187.913 559.768 188.393 558.856C188.885 557.932 189.539 557.23 190.355 556.75C191.171 556.258 192.071 556.012 193.055 556.012C193.799 556.012 194.459 556.162 195.035 556.462C195.611 556.762 196.085 557.11 196.457 557.506L195.341 558.856C195.041 558.544 194.705 558.298 194.333 558.118C193.973 557.926 193.565 557.83 193.109 557.83C192.473 557.83 191.903 558.004 191.399 558.352C190.907 558.688 190.517 559.174 190.229 559.81C189.953 560.446 189.815 561.208 189.815 562.096C189.815 563.44 190.109 564.496 190.697 565.264C191.285 566.02 192.071 566.398 193.055 566.398C193.583 566.398 194.051 566.29 194.459 566.074C194.867 565.846 195.239 565.552 195.575 565.192L196.691 566.506C196.211 567.058 195.659 567.484 195.035 567.784C194.423 568.072 193.739 568.216 192.983 568.216ZM201.62 568.216C200.828 568.216 200.06 568.066 199.316 567.766C198.584 567.466 197.936 567.04 197.372 566.488L198.596 565.066C199.016 565.462 199.496 565.786 200.036 566.038C200.576 566.278 201.116 566.398 201.656 566.398C202.328 566.398 202.838 566.26 203.186 565.984C203.534 565.708 203.708 565.342 203.708 564.886C203.708 564.394 203.534 564.04 203.186 563.824C202.85 563.608 202.418 563.386 201.89 563.158L200.27 562.456C199.886 562.288 199.508 562.072 199.136 561.808C198.776 561.544 198.476 561.208 198.236 560.8C198.008 560.392 197.894 559.9 197.894 559.324C197.894 558.7 198.062 558.142 198.398 557.65C198.746 557.146 199.214 556.75 199.802 556.462C200.402 556.162 201.086 556.012 201.854 556.012C202.538 556.012 203.198 556.15 203.834 556.426C204.47 556.69 205.016 557.05 205.472 557.506L204.41 558.838C204.038 558.526 203.642 558.28 203.222 558.1C202.814 557.92 202.358 557.83 201.854 557.83C201.302 557.83 200.852 557.956 200.504 558.208C200.168 558.448 200 558.784 200 559.216C200 559.516 200.084 559.768 200.252 559.972C200.432 560.164 200.666 560.332 200.954 560.476C201.242 560.608 201.548 560.74 201.872 560.872L203.474 561.538C204.17 561.838 204.74 562.234 205.184 562.726C205.628 563.206 205.85 563.872 205.85 564.724C205.85 565.36 205.682 565.942 205.346 566.47C205.01 566.998 204.524 567.424 203.888 567.748C203.264 568.06 202.508 568.216 201.62 568.216Z" fill="#3C4852"/>
<path fill-rule="evenodd" clip-rule="evenodd" d="M271.647 557.532C271.679 557.5 271.718 557.474 271.761 557.456C271.803 557.438 271.849 557.429 271.895 557.429C271.942 557.429 271.988 557.438 272.03 557.456C272.073 557.474 272.112 557.5 272.144 557.532L276.363 561.751C276.396 561.784 276.422 561.823 276.44 561.865C276.457 561.908 276.466 561.954 276.466 562C276.466 562.046 276.457 562.092 276.44 562.135C276.422 562.177 276.396 562.216 276.363 562.249L272.144 566.468C272.078 566.534 271.989 566.571 271.895 566.571C271.802 566.571 271.713 566.534 271.647 566.468C271.581 566.402 271.543 566.312 271.543 566.219C271.543 566.125 271.581 566.036 271.647 565.97L275.617 562L271.647 558.03C271.614 557.997 271.588 557.959 271.57 557.916C271.552 557.873 271.543 557.827 271.543 557.781C271.543 557.735 271.552 557.689 271.57 557.646C271.588 557.604 271.614 557.565 271.647 557.532Z" fill="#3C4852" stroke="#3C4852" stroke-width="1.05469"/>
<path d="M43.494 436V424.228H46.644C48.444 424.228 49.848 424.714 50.856 425.686C51.864 426.658 52.368 428.116 52.368 430.06C52.368 432.016 51.87 433.498 50.874 434.506C49.878 435.502 48.504 436 46.752 436H43.494ZM45.582 434.308H46.5C47.688 434.308 48.606 433.966 49.254 433.282C49.902 432.586 50.226 431.512 50.226 430.06C50.226 428.62 49.902 427.57 49.254 426.91C48.606 426.25 47.688 425.92 46.5 425.92H45.582V434.308ZM56.9802 429.736L56.5662 431.176H59.5722L59.1582 429.736C58.9662 429.112 58.7802 428.47 58.6002 427.81C58.4322 427.15 58.2642 426.496 58.0962 425.848H58.0242C57.8682 426.508 57.7002 427.168 57.5202 427.828C57.3522 428.476 57.1722 429.112 56.9802 429.736ZM53.0382 436L56.8722 424.228H59.3202L63.1542 436H60.9582L60.0402 432.814H56.0802L55.1622 436H53.0382ZM65.8212 436V425.992H62.4192V424.228H71.3112V425.992H67.9092V436H65.8212ZM74.9626 429.736L74.5486 431.176H77.5546L77.1406 429.736C76.9486 429.112 76.7626 428.47 76.5826 427.81C76.4146 427.15 76.2466 426.496 76.0786 425.848H76.0066C75.8506 426.508 75.6826 427.168 75.5026 427.828C75.3346 428.476 75.1546 429.112 74.9626 429.736ZM71.0206 436L74.8546 424.228H77.3026L81.1366 436H78.9406L78.0226 432.814H74.0626L73.1446 436H71.0206ZM89.6293 436.216C88.8373 436.216 88.0693 436.066 87.3253 435.766C86.5933 435.466 85.9453 435.04 85.3813 434.488L86.6053 433.066C87.0253 433.462 87.5053 433.786 88.0453 434.038C88.5853 434.278 89.1253 434.398 89.6653 434.398C90.3373 434.398 90.8473 434.26 91.1953 433.984C91.5433 433.708 91.7173 433.342 91.7173 432.886C91.7173 432.394 91.5433 432.04 91.1953 431.824C90.8593 431.608 90.4273 431.386 89.8993 431.158L88.2793 430.456C87.8953 430.288 87.5173 430.072 87.1453 429.808C86.7853 429.544 86.4853 429.208 86.2453 428.8C86.0173 428.392 85.9033 427.9 85.9033 427.324C85.9033 426.7 86.0713 426.142 86.4073 425.65C86.7553 425.146 87.2233 424.75 87.8113 424.462C88.4113 424.162 89.0953 424.012 89.8633 424.012C90.5473 424.012 91.2073 424.15 91.8433 424.426C92.4793 424.69 93.0253 425.05 93.4813 425.506L92.4193 426.838C92.0473 426.526 91.6513 426.28 91.2313 426.1C90.8233 425.92 90.3673 425.83 89.8633 425.83C89.3113 425.83 88.8613 425.956 88.5133 426.208C88.1773 426.448 88.0093 426.784 88.0093 427.216C88.0093 427.516 88.0933 427.768 88.2613 427.972C88.4413 428.164 88.6753 428.332 88.9633 428.476C89.2513 428.608 89.5573 428.74 89.8813 428.872L91.4833 429.538C92.1793 429.838 92.7493 430.234 93.1933 430.726C93.6373 431.206 93.8593 431.872 93.8593 432.724C93.8593 433.36 93.6913 433.942 93.3553 434.47C93.0193 434.998 92.5333 435.424 91.8973 435.748C91.2733 436.06 90.5173 436.216 89.6293 436.216ZM100.698 436.216C99.7139 436.216 98.8199 435.982 98.0159 435.514C97.2119 435.046 96.5699 434.362 96.0899 433.462C95.6219 432.55 95.3879 431.446 95.3879 430.15C95.3879 428.866 95.6279 427.768 96.1079 426.856C96.5999 425.932 97.2539 425.23 98.0699 424.75C98.8859 424.258 99.7859 424.012 100.77 424.012C101.514 424.012 102.174 424.162 102.75 424.462C103.326 424.762 103.8 425.11 104.172 425.506L103.056 426.856C102.756 426.544 102.42 426.298 102.048 426.118C101.688 425.926 101.28 425.83 100.824 425.83C100.188 425.83 99.6179 426.004 99.1139 426.352C98.6219 426.688 98.2319 427.174 97.9439 427.81C97.6679 428.446 97.5299 429.208 97.5299 430.096C97.5299 431.44 97.8239 432.496 98.4119 433.264C98.9999 434.02 99.7859 434.398 100.77 434.398C101.298 434.398 101.766 434.29 102.174 434.074C102.582 433.846 102.954 433.552 103.29 433.192L104.406 434.506C103.926 435.058 103.374 435.484 102.75 435.784C102.138 436.072 101.454 436.216 100.698 436.216ZM106.371 436V424.228H108.459V436H106.371ZM111.451 436V424.228H118.543V425.992H113.539V428.998H117.769V430.762H113.539V434.236H118.723V436H111.451ZM121.137 436V424.228H123.279L126.951 430.852L128.157 433.354H128.229C128.181 432.754 128.121 432.1 128.049 431.392C127.989 430.684 127.959 430 127.959 429.34V424.228H129.957V436H127.815L124.143 429.376L122.937 426.874H122.865C122.913 427.498 122.967 428.152 123.027 428.836C123.099 429.52 123.135 430.192 123.135 430.852V436H121.137ZM137.647 436.216C136.663 436.216 135.769 435.982 134.965 435.514C134.161 435.046 133.519 434.362 133.039 433.462C132.571 432.55 132.337 431.446 132.337 430.15C132.337 428.866 132.577 427.768 133.057 426.856C133.549 425.932 134.203 425.23 135.019 424.75C135.835 424.258 136.735 424.012 137.719 424.012C138.463 424.012 139.123 424.162 139.699 424.462C140.275 424.762 140.749 425.11 141.121 425.506L140.005 426.856C139.705 426.544 139.369 426.298 138.997 426.118C138.637 425.926 138.229 425.83 137.773 425.83C137.137 425.83 136.567 426.004 136.063 426.352C135.571 426.688 135.181 427.174 134.893 427.81C134.617 428.446 134.479 429.208 134.479 430.096C134.479 431.44 134.773 432.496 135.361 433.264C135.949 434.02 136.735 434.398 137.719 434.398C138.247 434.398 138.715 434.29 139.123 434.074C139.531 433.846 139.903 433.552 140.239 433.192L141.355 434.506C140.875 435.058 140.323 435.484 139.699 435.784C139.087 436.072 138.403 436.216 137.647 436.216ZM143.32 436V424.228H150.412V425.992H145.408V428.998H149.638V430.762H145.408V434.236H150.592V436H143.32Z" fill="#3C4852"/>
<path fill-rule="evenodd" clip-rule="evenodd" d="M271.647 425.532C271.679 425.5 271.718 425.474 271.761 425.456C271.803 425.438 271.849 425.429 271.895 425.429C271.942 425.429 271.988 425.438 272.03 425.456C272.073 425.474 272.112 425.5 272.144 425.532L276.363 429.751C276.396 429.784 276.422 429.823 276.44 429.865C276.457 429.908 276.466 429.954 276.466 430C276.466 430.046 276.457 430.092 276.44 430.135C276.422 430.177 276.396 430.216 276.363 430.249L272.144 434.468C272.078 434.534 271.989 434.571 271.895 434.571C271.802 434.571 271.713 434.534 271.647 434.468C271.581 434.402 271.543 434.312 271.543 434.219C271.543 434.125 271.581 434.036 271.647 433.97L275.617 430L271.647 426.03C271.614 425.998 271.588 425.959 271.57 425.916C271.552 425.873 271.543 425.827 271.543 425.781C271.543 425.735 271.552 425.689 271.57 425.647C271.588 425.604 271.614 425.565 271.647 425.532Z" fill="#3C4852" stroke="#3C4852" stroke-width="1.05469"/>
<path d="M43.494 244V232.228H47.256C48.072 232.228 48.792 232.318 49.416 232.498C50.052 232.678 50.55 232.984 50.91 233.416C51.282 233.836 51.468 234.406 51.468 235.126C51.468 235.678 51.324 236.2 51.036 236.692C50.748 237.172 50.346 237.502 49.83 237.682V237.754C50.478 237.898 51.012 238.204 51.432 238.672C51.864 239.128 52.08 239.752 52.08 240.544C52.08 241.324 51.882 241.972 51.486 242.488C51.102 243.004 50.568 243.388 49.884 243.64C49.2 243.88 48.426 244 47.562 244H43.494ZM45.582 237.088H47.076C47.892 237.088 48.486 236.938 48.858 236.638C49.23 236.338 49.416 235.936 49.416 235.432C49.416 234.856 49.224 234.448 48.84 234.208C48.456 233.968 47.88 233.848 47.112 233.848H45.582V237.088ZM45.582 242.38H47.346C48.21 242.38 48.876 242.224 49.344 241.912C49.812 241.588 50.046 241.096 50.046 240.436C50.046 239.812 49.818 239.362 49.362 239.086C48.906 238.798 48.234 238.654 47.346 238.654H45.582V242.38ZM58.6442 244.216C57.7442 244.216 56.9582 244.036 56.2862 243.676C55.6142 243.316 55.0922 242.74 54.7202 241.948C54.3602 241.156 54.1802 240.118 54.1802 238.834V232.228H56.2682V238.996C56.2682 239.848 56.3642 240.526 56.5562 241.03C56.7602 241.522 57.0422 241.876 57.4022 242.092C57.7622 242.296 58.1762 242.398 58.6442 242.398C59.1242 242.398 59.5442 242.296 59.9042 242.092C60.2762 241.876 60.5642 241.522 60.7682 241.03C60.9842 240.526 61.0922 239.848 61.0922 238.996V232.228H63.0902V238.834C63.0902 240.118 62.9102 241.156 62.5502 241.948C62.1902 242.74 61.6742 243.316 61.0022 243.676C60.3422 244.036 59.5562 244.216 58.6442 244.216ZM69.2914 244.216C68.4994 244.216 67.7314 244.066 66.9874 243.766C66.2554 243.466 65.6074 243.04 65.0434 242.488L66.2674 241.066C66.6874 241.462 67.1674 241.786 67.7074 242.038C68.2474 242.278 68.7874 242.398 69.3274 242.398C69.9994 242.398 70.5094 242.26 70.8574 241.984C71.2054 241.708 71.3794 241.342 71.3794 240.886C71.3794 240.394 71.2054 240.04 70.8574 239.824C70.5214 239.608 70.0894 239.386 69.5614 239.158L67.9414 238.456C67.5574 238.288 67.1794 238.072 66.8074 237.808C66.4474 237.544 66.1474 237.208 65.9074 236.8C65.6794 236.392 65.5654 235.9 65.5654 235.324C65.5654 234.7 65.7334 234.142 66.0694 233.65C66.4174 233.146 66.8854 232.75 67.4734 232.462C68.0734 232.162 68.7574 232.012 69.5254 232.012C70.2094 232.012 70.8694 232.15 71.5054 232.426C72.1414 232.69 72.6874 233.05 73.1434 233.506L72.0814 234.838C71.7094 234.526 71.3134 234.28 70.8934 234.1C70.4854 233.92 70.0294 233.83 69.5254 233.83C68.9734 233.83 68.5234 233.956 68.1754 234.208C67.8394 234.448 67.6714 234.784 67.6714 235.216C67.6714 235.516 67.7554 235.768 67.9234 235.972C68.1034 236.164 68.3374 236.332 68.6254 236.476C68.9134 236.608 69.2194 236.74 69.5434 236.872L71.1454 237.538C71.8414 237.838 72.4114 238.234 72.8554 238.726C73.2994 239.206 73.5214 239.872 73.5214 240.724C73.5214 241.36 73.3534 241.942 73.0174 242.47C72.6814 242.998 72.1954 243.424 71.5594 243.748C70.9354 244.06 70.1794 244.216 69.2914 244.216ZM75.662 244V232.228H77.75V244H75.662ZM80.742 244V232.228H82.884L86.556 238.852L87.762 241.354H87.834C87.786 240.754 87.726 240.1 87.654 239.392C87.594 238.684 87.564 238 87.564 237.34V232.228H89.562V244H87.42L83.748 237.376L82.542 234.874H82.47C82.518 235.498 82.572 236.152 82.632 236.836C82.704 237.52 82.74 238.192 82.74 238.852V244H80.742ZM92.5545 244V232.228H99.6465V233.992H94.6425V236.998H98.8725V238.762H94.6425V242.236H99.8265V244H92.5545ZM105.678 244.216C104.886 244.216 104.118 244.066 103.374 243.766C102.642 243.466 101.994 243.04 101.43 242.488L102.654 241.066C103.074 241.462 103.554 241.786 104.094 242.038C104.634 242.278 105.174 242.398 105.714 242.398C106.386 242.398 106.896 242.26 107.244 241.984C107.592 241.708 107.766 241.342 107.766 240.886C107.766 240.394 107.592 240.04 107.244 239.824C106.908 239.608 106.476 239.386 105.948 239.158L104.328 238.456C103.944 238.288 103.566 238.072 103.194 237.808C102.834 237.544 102.534 237.208 102.294 236.8C102.066 236.392 101.952 235.9 101.952 235.324C101.952 234.7 102.12 234.142 102.456 233.65C102.804 233.146 103.272 232.75 103.86 232.462C104.46 232.162 105.144 232.012 105.912 232.012C106.596 232.012 107.256 232.15 107.892 232.426C108.528 232.69 109.074 233.05 109.53 233.506L108.468 234.838C108.096 234.526 107.7 234.28 107.28 234.1C106.872 233.92 106.416 233.83 105.912 233.83C105.36 233.83 104.91 233.956 104.562 234.208C104.226 234.448 104.058 234.784 104.058 235.216C104.058 235.516 104.142 235.768 104.31 235.972C104.49 236.164 104.724 236.332 105.012 236.476C105.3 236.608 105.606 236.74 105.93 236.872L107.532 237.538C108.228 237.838 108.798 238.234 109.242 238.726C109.686 239.206 109.908 239.872 109.908 240.724C109.908 241.36 109.74 241.942 109.404 242.47C109.068 242.998 108.582 243.424 107.946 243.748C107.322 244.06 106.566 244.216 105.678 244.216ZM115.205 244.216C114.413 244.216 113.645 244.066 112.901 243.766C112.169 243.466 111.521 243.04 110.957 242.488L112.181 241.066C112.601 241.462 113.081 241.786 113.621 242.038C114.161 242.278 114.701 242.398 115.241 242.398C115.913 242.398 116.423 242.26 116.771 241.984C117.119 241.708 117.293 241.342 117.293 240.886C117.293 240.394 117.119 240.04 116.771 239.824C116.435 239.608 116.003 239.386 115.475 239.158L113.855 238.456C113.471 238.288 113.093 238.072 112.721 237.808C112.361 237.544 112.061 237.208 111.821 236.8C111.593 236.392 111.479 235.9 111.479 235.324C111.479 234.7 111.647 234.142 111.983 233.65C112.331 233.146 112.799 232.75 113.387 232.462C113.987 232.162 114.671 232.012 115.439 232.012C116.123 232.012 116.783 232.15 117.419 232.426C118.055 232.69 118.601 233.05 119.057 233.506L117.995 234.838C117.623 234.526 117.227 234.28 116.807 234.1C116.399 233.92 115.943 233.83 115.439 233.83C114.887 233.83 114.437 233.956 114.089 234.208C113.753 234.448 113.585 234.784 113.585 235.216C113.585 235.516 113.669 235.768 113.837 235.972C114.017 236.164 114.251 236.332 114.539 236.476C114.827 236.608 115.133 236.74 115.457 236.872L117.059 237.538C117.755 237.838 118.325 238.234 118.769 238.726C119.213 239.206 119.435 239.872 119.435 240.724C119.435 241.36 119.267 241.942 118.931 242.47C118.595 242.998 118.109 243.424 117.473 243.748C116.849 244.06 116.093 244.216 115.205 244.216ZM125.18 244V232.228H127.538L129.626 237.988C129.758 238.36 129.884 238.744 130.004 239.14C130.136 239.524 130.262 239.908 130.382 240.292H130.454C130.586 239.908 130.712 239.524 130.832 239.14C130.952 238.744 131.072 238.36 131.192 237.988L133.226 232.228H135.602V244H133.676V238.618C133.676 238.246 133.688 237.844 133.712 237.412C133.748 236.968 133.784 236.524 133.82 236.08C133.868 235.636 133.91 235.234 133.946 234.874H133.874L132.92 237.61L130.994 242.902H129.752L127.808 237.61L126.872 234.874H126.8C126.836 235.234 126.872 235.636 126.908 236.08C126.956 236.524 126.992 236.968 127.016 237.412C127.052 237.844 127.07 238.246 127.07 238.618V244H125.18ZM141.004 237.736L140.59 239.176H143.596L143.182 237.736C142.99 237.112 142.804 236.47 142.624 235.81C142.456 235.15 142.288 234.496 142.12 233.848H142.048C141.892 234.508 141.724 235.168 141.544 235.828C141.376 236.476 141.196 237.112 141.004 237.736ZM137.062 244L140.896 232.228H143.344L147.178 244H144.982L144.064 240.814H140.104L139.186 244H137.062ZM148.629 244V232.228H150.771L154.443 238.852L155.649 241.354H155.721C155.673 240.754 155.613 240.1 155.541 239.392C155.481 238.684 155.451 238 155.451 237.34V232.228H157.449V244H155.307L151.635 237.376L150.429 234.874H150.357C150.405 235.498 150.459 236.152 150.519 236.836C150.591 237.52 150.627 238.192 150.627 238.852V244H148.629ZM162.853 237.736L162.439 239.176H165.445L165.031 237.736C164.839 237.112 164.653 236.47 164.473 235.81C164.305 235.15 164.137 234.496 163.969 233.848H163.897C163.741 234.508 163.573 235.168 163.393 235.828C163.225 236.476 163.045 237.112 162.853 237.736ZM158.911 244L162.745 232.228H165.193L169.027 244H166.831L165.913 240.814H161.953L161.035 244H158.911ZM175.235 244.216C174.179 244.216 173.231 243.982 172.391 243.514C171.551 243.046 170.891 242.362 170.411 241.462C169.931 240.55 169.691 239.446 169.691 238.15C169.691 236.866 169.937 235.768 170.429 234.856C170.921 233.932 171.587 233.23 172.427 232.75C173.267 232.258 174.209 232.012 175.253 232.012C176.093 232.012 176.801 232.168 177.377 232.48C177.965 232.78 178.445 233.122 178.817 233.506L177.701 234.856C177.401 234.568 177.065 234.328 176.693 234.136C176.333 233.932 175.877 233.83 175.325 233.83C174.281 233.83 173.435 234.214 172.787 234.982C172.151 235.738 171.833 236.776 171.833 238.096C171.833 239.44 172.139 240.496 172.751 241.264C173.363 242.02 174.257 242.398 175.433 242.398C175.769 242.398 176.087 242.356 176.387 242.272C176.687 242.176 176.933 242.044 177.125 241.876V239.338H174.893V237.628H178.997V242.812C178.601 243.208 178.073 243.544 177.413 243.82C176.765 244.084 176.039 244.216 175.235 244.216ZM181.605 244V232.228H188.697V233.992H183.693V236.998H187.923V238.762H183.693V242.236H188.877V244H181.605ZM191.291 244V232.228H193.649L195.737 237.988C195.869 238.36 195.995 238.744 196.115 239.14C196.247 239.524 196.373 239.908 196.493 240.292H196.565C196.697 239.908 196.823 239.524 196.943 239.14C197.063 238.744 197.183 238.36 197.303 237.988L199.337 232.228H201.713V244H199.787V238.618C199.787 238.246 199.799 237.844 199.823 237.412C199.859 236.968 199.895 236.524 199.931 236.08C199.979 235.636 200.021 235.234 200.057 234.874H199.985L199.031 237.61L197.105 242.902H195.863L193.919 237.61L192.983 234.874H192.911C192.947 235.234 192.983 235.636 193.019 236.08C193.067 236.524 193.103 236.968 193.127 237.412C193.163 237.844 193.181 238.246 193.181 238.618V244H191.291ZM204.703 244V232.228H211.795V233.992H206.791V236.998H211.021V238.762H206.791V242.236H211.975V244H204.703ZM214.389 244V232.228H216.531L220.203 238.852L221.409 241.354H221.481C221.433 240.754 221.373 240.1 221.301 239.392C221.241 238.684 221.211 238 221.211 237.34V232.228H223.209V244H221.067L217.395 237.376L216.189 234.874H216.117C216.165 235.498 216.219 236.152 216.279 236.836C216.351 237.52 216.387 238.192 216.387 238.852V244H214.389ZM228.577 244V233.992H225.175V232.228H234.067V233.992H230.665V244H228.577Z" fill="#3C4852"/>
<path fill-rule="evenodd" clip-rule="evenodd" d="M272.087 233.532C272.12 233.5 272.158 233.474 272.201 233.456C272.244 233.438 272.29 233.429 272.336 233.429C272.382 233.429 272.428 233.438 272.471 233.456C272.513 233.474 272.552 233.5 272.585 233.532L276.804 237.751C276.836 237.784 276.862 237.823 276.88 237.865C276.898 237.908 276.907 237.954 276.907 238C276.907 238.046 276.898 238.092 276.88 238.135C276.862 238.177 276.836 238.216 276.804 238.249L272.585 242.468C272.519 242.534 272.429 242.571 272.336 242.571C272.243 242.571 272.153 242.534 272.087 242.468C272.021 242.402 271.984 242.312 271.984 242.219C271.984 242.125 272.021 242.036 272.087 241.97L276.058 238L272.087 234.03C272.054 233.997 272.028 233.959 272.011 233.916C271.993 233.873 271.984 233.827 271.984 233.781C271.984 233.735 271.993 233.689 272.011 233.647C272.028 233.604 272.054 233.565 272.087 233.532Z" fill="#3C4852" stroke="#3C4852" stroke-width="1.05469"/>
<path d="M47.932 179.216C47.14 179.216 46.372 179.066 45.628 178.766C44.896 178.466 44.248 178.04 43.684 177.488L44.908 176.066C45.328 176.462 45.808 176.786 46.348 177.038C46.888 177.278 47.428 177.398 47.968 177.398C48.64 177.398 49.15 177.26 49.498 176.984C49.846 176.708 50.02 176.342 50.02 175.886C50.02 175.394 49.846 175.04 49.498 174.824C49.162 174.608 48.73 174.386 48.202 174.158L46.582 173.456C46.198 173.288 45.82 173.072 45.448 172.808C45.088 172.544 44.788 172.208 44.548 171.8C44.32 171.392 44.206 170.9 44.206 170.324C44.206 169.7 44.374 169.142 44.71 168.65C45.058 168.146 45.526 167.75 46.114 167.462C46.714 167.162 47.398 167.012 48.166 167.012C48.85 167.012 49.51 167.15 50.146 167.426C50.782 167.69 51.328 168.05 51.784 168.506L50.722 169.838C50.35 169.526 49.954 169.28 49.534 169.1C49.126 168.92 48.67 168.83 48.166 168.83C47.614 168.83 47.164 168.956 46.816 169.208C46.48 169.448 46.312 169.784 46.312 170.216C46.312 170.516 46.396 170.768 46.564 170.972C46.744 171.164 46.978 171.332 47.266 171.476C47.554 171.608 47.86 171.74 48.184 171.872L49.786 172.538C50.482 172.838 51.052 173.234 51.496 173.726C51.94 174.206 52.162 174.872 52.162 175.724C52.162 176.36 51.994 176.942 51.658 177.47C51.322 177.998 50.836 178.424 50.2 178.748C49.576 179.06 48.82 179.216 47.932 179.216ZM56.327 179V168.992H52.925V167.228H61.817V168.992H58.415V179H56.327ZM63.7772 179V167.228H67.7552C68.5712 167.228 69.3032 167.336 69.9512 167.552C70.6112 167.768 71.1272 168.134 71.4992 168.65C71.8832 169.154 72.0752 169.844 72.0752 170.72C72.0752 171.62 71.8592 172.346 71.4272 172.898C71.0072 173.45 70.4432 173.846 69.7352 174.086L72.5432 179H70.2032L67.6652 174.392H65.8652V179H63.7772ZM65.8652 172.736H67.5392C68.3432 172.736 68.9552 172.568 69.3752 172.232C69.8072 171.884 70.0232 171.38 70.0232 170.72C70.0232 170.048 69.8072 169.58 69.3752 169.316C68.9552 169.04 68.3432 168.902 67.5392 168.902H65.8652V172.736ZM76.7361 172.736L76.3221 174.176H79.3281L78.9141 172.736C78.7221 172.112 78.5361 171.47 78.3561 170.81C78.1881 170.15 78.0201 169.496 77.8521 168.848H77.7801C77.6241 169.508 77.4561 170.168 77.2761 170.828C77.1081 171.476 76.9281 172.112 76.7361 172.736ZM72.7941 179L76.6281 167.228H79.0761L82.9101 179H80.7141L79.7961 175.814H75.8361L74.9181 179H72.7941ZM85.577 179V168.992H82.175V167.228H91.067V168.992H87.665V179H85.577ZM93.0272 179V167.228H100.119V168.992H95.1152V171.998H99.3452V173.762H95.1152V177.236H100.299V179H93.0272ZM107.645 179.216C106.589 179.216 105.641 178.982 104.801 178.514C103.961 178.046 103.301 177.362 102.821 176.462C102.341 175.55 102.101 174.446 102.101 173.15C102.101 171.866 102.347 170.768 102.839 169.856C103.331 168.932 103.997 168.23 104.837 167.75C105.677 167.258 106.619 167.012 107.663 167.012C108.503 167.012 109.211 167.168 109.787 167.48C110.375 167.78 110.855 168.122 111.227 168.506L110.111 169.856C109.811 169.568 109.475 169.328 109.103 169.136C108.743 168.932 108.287 168.83 107.735 168.83C106.691 168.83 105.845 169.214 105.197 169.982C104.561 170.738 104.243 171.776 104.243 173.096C104.243 174.44 104.549 175.496 105.161 176.264C105.773 177.02 106.667 177.398 107.843 177.398C108.179 177.398 108.497 177.356 108.797 177.272C109.097 177.176 109.343 177.044 109.535 176.876V174.338H107.303V172.628H111.407V177.812C111.011 178.208 110.483 178.544 109.823 178.82C109.175 179.084 108.449 179.216 107.645 179.216ZM115.977 179V174.626L112.449 167.228H114.681L115.959 170.234C116.127 170.678 116.295 171.11 116.463 171.53C116.631 171.938 116.811 172.37 117.003 172.826H117.075C117.267 172.37 117.453 171.938 117.633 171.53C117.813 171.11 117.987 170.678 118.155 170.234L119.433 167.228H121.611L118.065 174.626V179H115.977ZM128.869 169.928C128.869 170.192 128.911 170.468 128.995 170.756C129.079 171.044 129.193 171.344 129.337 171.656C129.829 171.344 130.243 171.026 130.579 170.702C130.915 170.378 131.083 169.988 131.083 169.532C131.083 169.22 131.011 168.956 130.867 168.74C130.723 168.524 130.477 168.416 130.129 168.416C129.757 168.416 129.451 168.554 129.211 168.83C128.983 169.106 128.869 169.472 128.869 169.928ZM129.409 179.216C128.629 179.216 127.957 179.072 127.393 178.784C126.829 178.484 126.397 178.088 126.097 177.596C125.797 177.092 125.647 176.528 125.647 175.904C125.647 175.364 125.749 174.89 125.953 174.482C126.169 174.074 126.445 173.714 126.781 173.402C127.129 173.09 127.501 172.802 127.897 172.538C127.657 172.082 127.471 171.638 127.339 171.206C127.207 170.774 127.141 170.354 127.141 169.946C127.141 169.406 127.261 168.914 127.501 168.47C127.753 168.026 128.101 167.672 128.545 167.408C128.989 167.144 129.511 167.012 130.111 167.012C130.915 167.012 131.545 167.246 132.001 167.714C132.469 168.17 132.703 168.77 132.703 169.514C132.703 170.03 132.577 170.492 132.325 170.9C132.085 171.296 131.767 171.662 131.371 171.998C130.987 172.322 130.579 172.634 130.147 172.934C130.507 173.414 130.915 173.888 131.371 174.356C131.839 174.824 132.325 175.25 132.829 175.634C133.153 175.202 133.441 174.728 133.693 174.212C133.957 173.684 134.167 173.114 134.323 172.502H136.231C136.015 173.234 135.739 173.948 135.403 174.644C135.067 175.328 134.671 175.976 134.215 176.588C134.599 176.816 134.971 177.014 135.331 177.182C135.691 177.35 136.027 177.464 136.339 177.524L135.817 179.216C135.373 179.108 134.905 178.952 134.413 178.748C133.933 178.532 133.447 178.268 132.955 177.956C132.487 178.34 131.959 178.646 131.371 178.874C130.783 179.102 130.129 179.216 129.409 179.216ZM127.627 175.778C127.627 176.33 127.819 176.774 128.203 177.11C128.587 177.446 129.073 177.614 129.661 177.614C129.985 177.614 130.303 177.554 130.615 177.434C130.939 177.302 131.251 177.128 131.551 176.912C131.035 176.468 130.537 175.994 130.057 175.49C129.577 174.986 129.145 174.47 128.761 173.942C128.425 174.206 128.149 174.488 127.933 174.788C127.729 175.088 127.627 175.418 127.627 175.778ZM141.736 179V167.228H143.824V177.236H148.72V179H141.736ZM150.771 179V167.228H157.863V168.992H152.859V171.998H157.089V173.762H152.859V177.236H158.043V179H150.771ZM162.869 172.736L162.455 174.176H165.461L165.047 172.736C164.855 172.112 164.669 171.47 164.489 170.81C164.321 170.15 164.153 169.496 163.985 168.848H163.913C163.757 169.508 163.589 170.168 163.409 170.828C163.241 171.476 163.061 172.112 162.869 172.736ZM158.927 179L162.761 167.228H165.209L169.043 179H166.847L165.929 175.814H161.969L161.051 179H158.927ZM170.494 179V167.228H173.644C175.444 167.228 176.848 167.714 177.856 168.686C178.864 169.658 179.368 171.116 179.368 173.06C179.368 175.016 178.87 176.498 177.874 177.506C176.878 178.502 175.504 179 173.752 179H170.494ZM172.582 177.308H173.5C174.688 177.308 175.606 176.966 176.254 176.282C176.902 175.586 177.226 174.512 177.226 173.06C177.226 171.62 176.902 170.57 176.254 169.91C175.606 169.25 174.688 168.92 173.5 168.92H172.582V177.308ZM181.744 179V167.228H188.836V168.992H183.832V171.998H188.062V173.762H183.832V177.236H189.016V179H181.744ZM191.43 179V167.228H195.408C196.224 167.228 196.956 167.336 197.604 167.552C198.264 167.768 198.78 168.134 199.152 168.65C199.536 169.154 199.728 169.844 199.728 170.72C199.728 171.62 199.512 172.346 199.08 172.898C198.66 173.45 198.096 173.846 197.388 174.086L200.196 179H197.856L195.318 174.392H193.518V179H191.43ZM193.518 172.736H195.192C195.996 172.736 196.608 172.568 197.028 172.232C197.46 171.884 197.676 171.38 197.676 170.72C197.676 170.048 197.46 169.58 197.028 169.316C196.608 169.04 195.996 168.902 195.192 168.902H193.518V172.736ZM205.274 179.216C204.482 179.216 203.714 179.066 202.97 178.766C202.238 178.466 201.59 178.04 201.026 177.488L202.25 176.066C202.67 176.462 203.15 176.786 203.69 177.038C204.23 177.278 204.77 177.398 205.31 177.398C205.982 177.398 206.492 177.26 206.84 176.984C207.188 176.708 207.362 176.342 207.362 175.886C207.362 175.394 207.188 175.04 206.84 174.824C206.504 174.608 206.072 174.386 205.544 174.158L203.924 173.456C203.54 173.288 203.162 173.072 202.79 172.808C202.43 172.544 202.13 172.208 201.89 171.8C201.662 171.392 201.548 170.9 201.548 170.324C201.548 169.7 201.716 169.142 202.052 168.65C202.4 168.146 202.868 167.75 203.456 167.462C204.056 167.162 204.74 167.012 205.508 167.012C206.192 167.012 206.852 167.15 207.488 167.426C208.124 167.69 208.67 168.05 209.126 168.506L208.064 169.838C207.692 169.526 207.296 169.28 206.876 169.1C206.468 168.92 206.012 168.83 205.508 168.83C204.956 168.83 204.506 168.956 204.158 169.208C203.822 169.448 203.654 169.784 203.654 170.216C203.654 170.516 203.738 170.768 203.906 170.972C204.086 171.164 204.32 171.332 204.608 171.476C204.896 171.608 205.202 171.74 205.526 171.872L207.128 172.538C207.824 172.838 208.394 173.234 208.838 173.726C209.282 174.206 209.504 174.872 209.504 175.724C209.504 176.36 209.336 176.942 209 177.47C208.664 177.998 208.178 178.424 207.542 178.748C206.918 179.06 206.162 179.216 205.274 179.216ZM211.644 179V167.228H213.732V171.962H218.502V167.228H220.59V179H218.502V173.78H213.732V179H211.644ZM223.58 179V167.228H225.668V179H223.58ZM228.66 179V167.228H232.368C233.244 167.228 234.024 167.342 234.708 167.57C235.392 167.798 235.932 168.176 236.328 168.704C236.724 169.232 236.922 169.952 236.922 170.864C236.922 171.728 236.724 172.442 236.328 173.006C235.932 173.57 235.398 173.99 234.726 174.266C234.054 174.542 233.292 174.68 232.44 174.68H230.748V179H228.66ZM230.748 173.006H232.278C234.006 173.006 234.87 172.292 234.87 170.864C234.87 170.12 234.642 169.61 234.186 169.334C233.742 169.046 233.082 168.902 232.206 168.902H230.748V173.006Z" fill="#3C4852"/>
<path fill-rule="evenodd" clip-rule="evenodd" d="M273.267 168.532C273.299 168.5 273.338 168.474 273.381 168.456C273.424 168.438 273.469 168.429 273.516 168.429C273.562 168.429 273.608 168.438 273.65 168.456C273.693 168.474 273.732 168.5 273.765 168.532L277.983 172.751C278.016 172.784 278.042 172.823 278.06 172.865C278.077 172.908 278.087 172.954 278.087 173C278.087 173.046 278.077 173.092 278.06 173.135C278.042 173.177 278.016 173.216 277.983 173.249L273.765 177.468C273.699 177.534 273.609 177.571 273.516 177.571C273.422 177.571 273.333 177.534 273.267 177.468C273.201 177.402 273.164 177.312 273.164 177.219C273.164 177.125 273.201 177.036 273.267 176.97L277.237 173L273.267 169.03C273.234 168.998 273.208 168.959 273.19 168.916C273.173 168.873 273.163 168.827 273.163 168.781C273.163 168.735 273.173 168.689 273.19 168.647C273.208 168.604 273.234 168.565 273.267 168.532Z" fill="#3C4852" stroke="#3C4852" stroke-width="1.05469"/>
<path d="M43.494 114V102.228H47.202C48.078 102.228 48.858 102.342 49.542 102.57C50.226 102.798 50.766 103.176 51.162 103.704C51.558 104.232 51.756 104.952 51.756 105.864C51.756 106.728 51.558 107.442 51.162 108.006C50.766 108.57 50.232 108.99 49.56 109.266C48.888 109.542 48.126 109.68 47.274 109.68H45.582V114H43.494ZM45.582 108.006H47.112C48.84 108.006 49.704 107.292 49.704 105.864C49.704 105.12 49.476 104.61 49.02 104.334C48.576 104.046 47.916 103.902 47.04 103.902H45.582V108.006ZM53.9706 114V102.228H57.9486C58.7646 102.228 59.4966 102.336 60.1446 102.552C60.8046 102.768 61.3206 103.134 61.6926 103.65C62.0766 104.154 62.2686 104.844 62.2686 105.72C62.2686 106.62 62.0526 107.346 61.6206 107.898C61.2006 108.45 60.6366 108.846 59.9286 109.086L62.7366 114H60.3966L57.8586 109.392H56.0586V114H53.9706ZM56.0586 107.736H57.7326C58.5366 107.736 59.1486 107.568 59.5686 107.232C60.0006 106.884 60.2166 106.38 60.2166 105.72C60.2166 105.048 60.0006 104.58 59.5686 104.316C59.1486 104.04 58.5366 103.902 57.7326 103.902H56.0586V107.736ZM69.1949 114.216C68.1749 114.216 67.2749 113.97 66.4949 113.478C65.7149 112.974 65.1029 112.266 64.6589 111.354C64.2269 110.43 64.0109 109.332 64.0109 108.06C64.0109 106.788 64.2269 105.702 64.6589 104.802C65.1029 103.902 65.7149 103.212 66.4949 102.732C67.2749 102.252 68.1749 102.012 69.1949 102.012C70.2269 102.012 71.1329 102.252 71.9129 102.732C72.6929 103.212 73.2989 103.902 73.7309 104.802C74.1749 105.702 74.3969 106.788 74.3969 108.06C74.3969 109.332 74.1749 110.43 73.7309 111.354C73.2989 112.266 72.6929 112.974 71.9129 113.478C71.1329 113.97 70.2269 114.216 69.1949 114.216ZM69.1949 112.398C70.1189 112.398 70.8569 112.008 71.4089 111.228C71.9609 110.436 72.2369 109.38 72.2369 108.06C72.2369 106.74 71.9609 105.708 71.4089 104.964C70.8569 104.208 70.1189 103.83 69.1949 103.83C68.2709 103.83 67.5329 104.208 66.9809 104.964C66.4289 105.708 66.1529 106.74 66.1529 108.06C66.1529 109.38 66.4289 110.436 66.9809 111.228C67.5329 112.008 68.2709 112.398 69.1949 112.398ZM76.7518 114V102.228H79.9018C81.7018 102.228 83.1058 102.714 84.1138 103.686C85.1218 104.658 85.6258 106.116 85.6258 108.06C85.6258 110.016 85.1278 111.498 84.1318 112.506C83.1358 113.502 81.7618 114 80.0098 114H76.7518ZM78.8398 112.308H79.7578C80.9458 112.308 81.8638 111.966 82.5118 111.282C83.1598 110.586 83.4838 109.512 83.4838 108.06C83.4838 106.62 83.1598 105.57 82.5118 104.91C81.8638 104.25 80.9458 103.92 79.7578 103.92H78.8398V112.308ZM92.4118 114.216C91.5118 114.216 90.7258 114.036 90.0538 113.676C89.3818 113.316 88.8598 112.74 88.4878 111.948C88.1278 111.156 87.9478 110.118 87.9478 108.834V102.228H90.0358V108.996C90.0358 109.848 90.1318 110.526 90.3238 111.03C90.5278 111.522 90.8098 111.876 91.1698 112.092C91.5298 112.296 91.9438 112.398 92.4118 112.398C92.8918 112.398 93.3118 112.296 93.6718 112.092C94.0438 111.876 94.3318 111.522 94.5358 111.03C94.7518 110.526 94.8598 109.848 94.8598 108.996V102.228H96.8578V108.834C96.8578 110.118 96.6778 111.156 96.3178 111.948C95.9578 112.74 95.4418 113.316 94.7698 113.676C94.1098 114.036 93.3238 114.216 92.4118 114.216ZM104.495 114.216C103.511 114.216 102.617 113.982 101.813 113.514C101.009 113.046 100.367 112.362 99.8867 111.462C99.4187 110.55 99.1847 109.446 99.1847 108.15C99.1847 106.866 99.4247 105.768 99.9047 104.856C100.397 103.932 101.051 103.23 101.867 102.75C102.683 102.258 103.583 102.012 104.567 102.012C105.311 102.012 105.971 102.162 106.547 102.462C107.123 102.762 107.597 103.11 107.969 103.506L106.853 104.856C106.553 104.544 106.217 104.298 105.845 104.118C105.485 103.926 105.077 103.83 104.621 103.83C103.985 103.83 103.415 104.004 102.911 104.352C102.419 104.688 102.029 105.174 101.741 105.81C101.465 106.446 101.327 107.208 101.327 108.096C101.327 109.44 101.621 110.496 102.209 111.264C102.797 112.02 103.583 112.398 104.567 112.398C105.095 112.398 105.563 112.29 105.971 112.074C106.379 111.846 106.751 111.552 107.087 111.192L108.203 112.506C107.723 113.058 107.171 113.484 106.547 113.784C105.935 114.072 105.251 114.216 104.495 114.216ZM112.28 114V103.992H108.878V102.228H117.77V103.992H114.368V114H112.28ZM123.334 114V102.228H125.692L127.78 107.988C127.912 108.36 128.038 108.744 128.158 109.14C128.29 109.524 128.416 109.908 128.536 110.292H128.608C128.74 109.908 128.866 109.524 128.986 109.14C129.106 108.744 129.226 108.36 129.346 107.988L131.38 102.228H133.756V114H131.83V108.618C131.83 108.246 131.842 107.844 131.866 107.412C131.902 106.968 131.938 106.524 131.974 106.08C132.022 105.636 132.064 105.234 132.1 104.874H132.028L131.074 107.61L129.148 112.902H127.906L125.962 107.61L125.026 104.874H124.954C124.99 105.234 125.026 105.636 125.062 106.08C125.11 106.524 125.146 106.968 125.17 107.412C125.206 107.844 125.224 108.246 125.224 108.618V114H123.334ZM139.158 107.736L138.744 109.176H141.75L141.336 107.736C141.144 107.112 140.958 106.47 140.778 105.81C140.61 105.15 140.442 104.496 140.274 103.848H140.202C140.046 104.508 139.878 105.168 139.698 105.828C139.53 106.476 139.35 107.112 139.158 107.736ZM135.216 114L139.05 102.228H141.498L145.332 114H143.136L142.218 110.814H138.258L137.34 114H135.216ZM146.783 114V102.228H148.925L152.597 108.852L153.803 111.354H153.875C153.827 110.754 153.767 110.1 153.695 109.392C153.635 108.684 153.605 108 153.605 107.34V102.228H155.603V114H153.461L149.789 107.376L148.583 104.874H148.511C148.559 105.498 148.613 106.152 148.673 106.836C148.745 107.52 148.781 108.192 148.781 108.852V114H146.783ZM161.008 107.736L160.594 109.176H163.6L163.186 107.736C162.994 107.112 162.808 106.47 162.628 105.81C162.46 105.15 162.292 104.496 162.124 103.848H162.052C161.896 104.508 161.728 105.168 161.548 105.828C161.38 106.476 161.2 107.112 161.008 107.736ZM157.066 114L160.9 102.228H163.348L167.182 114H164.986L164.068 110.814H160.108L159.19 114H157.066ZM173.389 114.216C172.333 114.216 171.385 113.982 170.545 113.514C169.705 113.046 169.045 112.362 168.565 111.462C168.085 110.55 167.845 109.446 167.845 108.15C167.845 106.866 168.091 105.768 168.583 104.856C169.075 103.932 169.741 103.23 170.581 102.75C171.421 102.258 172.363 102.012 173.407 102.012C174.247 102.012 174.955 102.168 175.531 102.48C176.119 102.78 176.599 103.122 176.971 103.506L175.855 104.856C175.555 104.568 175.219 104.328 174.847 104.136C174.487 103.932 174.031 103.83 173.479 103.83C172.435 103.83 171.589 104.214 170.941 104.982C170.305 105.738 169.987 106.776 169.987 108.096C169.987 109.44 170.293 110.496 170.905 111.264C171.517 112.02 172.411 112.398 173.587 112.398C173.923 112.398 174.241 112.356 174.541 112.272C174.841 112.176 175.087 112.044 175.279 111.876V109.338H173.047V107.628H177.151V112.812C176.755 113.208 176.227 113.544 175.567 113.82C174.919 114.084 174.193 114.216 173.389 114.216ZM179.76 114V102.228H186.852V103.992H181.848V106.998H186.078V108.762H181.848V112.236H187.032V114H179.76ZM189.445 114V102.228H191.803L193.891 107.988C194.023 108.36 194.149 108.744 194.269 109.14C194.401 109.524 194.527 109.908 194.647 110.292H194.719C194.851 109.908 194.977 109.524 195.097 109.14C195.217 108.744 195.337 108.36 195.457 107.988L197.491 102.228H199.867V114H197.941V108.618C197.941 108.246 197.953 107.844 197.977 107.412C198.013 106.968 198.049 106.524 198.085 106.08C198.133 105.636 198.175 105.234 198.211 104.874H198.139L197.185 107.61L195.259 112.902H194.017L192.073 107.61L191.137 104.874H191.065C191.101 105.234 191.137 105.636 191.173 106.08C191.221 106.524 191.257 106.968 191.281 107.412C191.317 107.844 191.335 108.246 191.335 108.618V114H189.445ZM202.857 114V102.228H209.949V103.992H204.945V106.998H209.175V108.762H204.945V112.236H210.129V114H202.857ZM212.543 114V102.228H214.685L218.357 108.852L219.563 111.354H219.635C219.587 110.754 219.527 110.1 219.455 109.392C219.395 108.684 219.365 108 219.365 107.34V102.228H221.363V114H219.221L215.549 107.376L214.343 104.874H214.271C214.319 105.498 214.373 106.152 214.433 106.836C214.505 107.52 214.541 108.192 214.541 108.852V114H212.543ZM226.731 114V103.992H223.329V102.228H232.221V103.992H228.819V114H226.731Z" fill="#3C4852"/>
<path fill-rule="evenodd" clip-rule="evenodd" d="M272.267 103.532C272.299 103.5 272.338 103.474 272.381 103.456C272.424 103.438 272.469 103.429 272.516 103.429C272.562 103.429 272.608 103.438 272.65 103.456C272.693 103.474 272.732 103.5 272.765 103.532L276.983 107.751C277.016 107.784 277.042 107.823 277.06 107.865C277.077 107.908 277.087 107.954 277.087 108C277.087 108.046 277.077 108.092 277.06 108.135C277.042 108.177 277.016 108.216 276.983 108.249L272.765 112.468C272.699 112.534 272.609 112.571 272.516 112.571C272.422 112.571 272.333 112.534 272.267 112.468C272.201 112.402 272.164 112.312 272.164 112.219C272.164 112.125 272.201 112.036 272.267 111.97L276.237 108L272.267 104.03C272.234 103.998 272.208 103.959 272.19 103.916C272.173 103.873 272.163 103.827 272.163 103.781C272.163 103.735 272.173 103.689 272.19 103.647C272.208 103.604 272.234 103.565 272.267 103.532Z" fill="#3C4852" stroke="#3C4852" stroke-width="1.05469"/>
<path d="M46 142.5H273" stroke="black" stroke-opacity="0.41" stroke-linecap="round"/>
<path d="M46 207H273" stroke="black" stroke-opacity="0.41" stroke-linecap="round"/>
<path d="M46 272H273" stroke="black" stroke-opacity="0.41" stroke-linecap="round"/>
<path d="M45 337H272" stroke="black" stroke-opacity="0.41" stroke-linecap="round"/>
<path d="M46 393H273" stroke="black" stroke-opacity="0.41" stroke-linecap="round"/>
<path d="M45 467H272" stroke="black" stroke-opacity="0.41" stroke-linecap="round"/>
<path d="M45 532H272" stroke="black" stroke-opacity="0.41" stroke-linecap="round"/>
<defs>
<filter id="filter0_d_1_350" x="0.6" y="50.6" width="320.8" height="572.8" filterUnits="userSpaceOnUse" color-interpolation-filters="sRGB">
<feFlood flood-opacity="0" result="BackgroundImageFix"/>
<feColorMatrix in="SourceAlpha" type="matrix" values="0 0 0 0 0 0 0 0 0 0 0 0 0 0 0 0 0 0 127 0" result="hardAlpha"/>
<feMorphology radius="1" operator="dilate" in="SourceAlpha" result="effect1_dropShadow_1_350"/>
<feOffset dy="1"/>
<feGaussianBlur stdDeviation="12.2"/>
<feComposite in2="hardAlpha" operator="out"/>
<feColorMatrix type="matrix" values="0 0 0 0 0 0 0 0 0 0 0 0 0 0 0 0 0 0 0.16 0"/>
<feBlend mode="normal" in2="BackgroundImageFix" result="effect1_dropShadow_1_350"/>
<feBlend mode="normal" in="SourceGraphic" in2="effect1_dropShadow_1_350" result="shape"/>
</filter>
<filter id="filter1_d_1_350" x="0.6" y="0.6" width="320.8" height="100.8" filterUnits="userSpaceOnUse" color-interpolation-filters="sRGB">
<feFlood flood-opacity="0" result="BackgroundImageFix"/>
<feColorMatrix in="SourceAlpha" type="matrix" values="0 0 0 0 0 0 0 0 0 0 0 0 0 0 0 0 0 0 127 0" result="hardAlpha"/>
<feMorphology radius="1" operator="dilate" in="SourceAlpha" result="effect1_dropShadow_1_350"/>
<feOffset dy="1"/>
<feGaussianBlur stdDeviation="12.2"/>
<feComposite in2="hardAlpha" operator="out"/>
<feColorMatrix type="matrix" values="0 0 0 0 0 0 0 0 0 0 0 0 0 0 0 0 0 0 0.16 0"/>
<feBlend mode="normal" in2="BackgroundImageFix" result="effect1_dropShadow_1_350"/>
<feBlend mode="normal" in="SourceGraphic" in2="effect1_dropShadow_1_350" result="shape"/>
</filter>
</defs>
</svg>
